<svg xmlns="http://www.w3.org/2000/svg" xmlns:xlink="http://www.w3.org/1999/xlink" viewBox="7.83 76.82 476.19 325.47">
 <defs>
  <linearGradient id="f" x1=".50735" x2=".32721" y1=".12281" y2="1.0965" xlink:href="#a"/>
  <linearGradient id="g" xlink:href="#a"/>
  <linearGradient id="e" x1=".48529" x2=".41176" y1=".51136" y2=".60227">
   <stop stop-opacity=".408" offset="0"/>
   <stop stop-opacity="0" offset="1"/>
  </linearGradient>
  <linearGradient id="a">
   <stop stop-color="#fff" stop-opacity=".175" offset="0"/>
   <stop stop-color="#fff" stop-opacity=".375" offset="1"/>
  </linearGradient>
 </defs>
 <g fill-rule="evenodd">
  <g stroke="#000">
   <path d="m93.858 201.9c2.9135-12.972 5.827-102.34 32.049-100.89 93.233 2.8827 189.38-93.688 259.3 121.07 215.6 100.89 14.991 181.97-155.69 174.76-168.66-7.061-312.66-128.64-135.66-194.94h-1.5e-5z" fill="#161616" stroke-linejoin="round" stroke-width="10"/>
   <path d="m89.488 230.73c107.8 67.743 285.52 25.944 292.81-7.2068 10.197 11.531 0 43.24 0 43.24-46.616 60.537-272.41 47.564-297.18 4.3241-2.9135-11.531 2.9135-36.034 4.3703-40.358h-3.1e-5z" fill="#3f3f3f" stroke-width="5"/>
  </g>
  <g stroke-width="1.25">
   <path d="m130.28 122.63c27.678-24.503 148.59 10.089 164.61 28.827 5.8271 31.71-148.59 7.2068-164.61-28.827z" fill="url(#e)"/>
   <path d="m130.28 158.66c13.111 30.268 64.098 100.89 150.05 33.151-71.381 2.8827-101.97-5.7654-150.05-33.151z" fill="url(#f)"/>
   <path d="m160.87 99.567c18.938 8.6481 138.39 41.799 151.5 31.71 14.568-5.7654 11.654-8.6481 4.3703-10.09-11.654 7.2068-32.049 11.531-155.87-21.62z" fill="url(#g)"/>
  </g>
  <path d="m106.97 246.58c17.481 8.6481 71.381 20.179 91.776 21.62 14.568 10.089 7.2838 25.944 1.4568 37.475-39.333 0-84.492-10.089-96.146-23.062-7.2838-12.972-4.3703-23.062 2.9135-36.034z" fill="#fff" fill-opacity=".317" stroke="#000" stroke-width="2.348"/>
 </g>
</svg>