<?xml version="1.0" encoding="UTF-8"?>
<svg viewBox="0 0 1012.299 836.35712" xmlns="http://www.w3.org/2000/svg" xmlns:xlink="http://www.w3.org/1999/xlink">
 <defs>
  <clipPath id="u">
   <path d="m491.67 646.33-2.0317 88.38c-2.4507 4.1921-4.495 8.6215-6.0951 13.206-6.4814 18.57-5.4038 39.312 1.0158 57.904 8.7973 25.478 27.131 46.9 48.761 62.983 31.943 23.751 70.752 36.544 109.71 44.698 33.751 7.0637 68.142 10.929 102.6 12.19 35.904 1.3139 71.866-0.19191 107.68-3.0476 38.355-3.0582 76.783-7.7033 113.78-18.285 22.999-6.579 45.306-15.416 67.047-25.396 25.485-11.699 50.237-24.983 74.158-39.618 8.574-5.2458 17.042-10.665 25.396-16.254-0.6401-14.929-3.742-29.749-9.1427-43.682-5.2571-13.562-11.505-23.698-22.944-32.682-11.385-8.9419-25.848-13.388-40.275-12.19-56.026 6.5294-100.39 18.691-148.08 26.587-42.243 6.994-85.201 8.8023-128 10.159-38.312 1.2141-76.792 0.96272-114.79-4.0634-36.382-4.8121-72.337-14.06-105.65-29.46-22.421-10.365-44.239-24.12-57.904-44.698-5.5598-8.3724-9.6361-17.708-12.19-27.428-1.6581-6.3102-2.6808-12.787-3.0476-19.301"/>
  </clipPath>
  <clipPath id="t">
   <path d="m488.63 732.68 6.0951-88.38c-1.2232-11.695 0.54088-23.691 5.0793-34.539 5.1612-12.337 13.695-22.921 20.317-34.539 15.628-27.416 20.142-59.578 30.476-89.395 11.341-32.723 29.677-62.527 48.761-91.427 20.662-31.291 42.465-61.995 68.062-89.395 8.696-9.3084 17.882-18.275 28.444-25.396 29.071-19.603 65.624-23.541 100.57-26.412 35.827-2.9432 71.887-5.3584 107.68-2.0317 27.401 2.5466 54.366 8.4333 81.269 14.222 15.982 3.4387 31.98 6.8498 47.745 11.174 15.407 4.2265 30.773 9.3566 46.729 10.159 9.8604 0.4956 19.96-0.65529 29.46 2.0317 7.091 2.0056 13.484 6.0886 18.852 11.138s9.7613 11.05 13.656 17.306c10.365 16.651 17.318 35.182 23.365 53.84 7.1439 22.044 13.117 44.458 18.285 67.047 3.9257 17.158 7.3891 34.426 10.159 51.809 2.9544 18.543 5.1172 37.202 7.111 55.872 2.6727 25.028 5.0433 50.088 7.111 75.173-8.5801 47.075-31.972 91.339-66.031 124.95-32.745 32.314-74.503 54.414-118.11 69.065s-89.258 22.202-134.84 28.457c-87.859 12.059-179.76 19.121-263.11-11.174-53.787-19.551-101.89-54.47-137.14-99.554"/>
  </clipPath>
  <filter id="s">
   <feGaussianBlur stdDeviation="18.9915"/>
  </filter>
  <filter id="r">
   <feGaussianBlur stdDeviation="2.4381"/>
  </filter>
  <filter id="p">
   <feGaussianBlur stdDeviation="2.1099"/>
  </filter>
  <filter id="o">
   <feGaussianBlur stdDeviation="10.4375"/>
  </filter>
  <filter id="n">
   <feGaussianBlur stdDeviation="4.6179"/>
  </filter>
  <filter id="m">
   <feGaussianBlur stdDeviation=".7761"/>
  </filter>
  <filter id="l">
   <feGaussianBlur stdDeviation="3.8593"/>
  </filter>
  <filter id="q" x="-.12026" y="-.06454" width="1.2405" height="1.1291">
   <feGaussianBlur stdDeviation="2.3412"/>
  </filter>
  <linearGradient id="a">
   <stop stop-color="#4d4445" offset="0"/>
   <stop stop-color="#4d4445" stop-opacity="0" offset="1"/>
  </linearGradient>
  <linearGradient id="k" x1="487.02" x2="1110.5" y1="743.99" y2="778.47" gradientUnits="userSpaceOnUse">
   <stop stop-color="#7c7277" offset="0"/>
   <stop stop-color="#6a5f63" offset=".3365"/>
   <stop stop-color="#544c4f" offset=".5669"/>
   <stop stop-color="#5e5456" offset="1"/>
  </linearGradient>
  <linearGradient id="i" x1="1148.2" x2="1207.5" y1="694.78" y2="574.82" gradientUnits="userSpaceOnUse">
   <stop stop-color="#483f40" offset="0"/>
   <stop stop-color="#1a1a1a" offset="1"/>
  </linearGradient>
  <linearGradient id="g" x1="1163.7" x2="1116.3" y1="807.2" y2="716.69" gradientUnits="userSpaceOnUse">
   <stop stop-color="#413b3b" offset="0"/>
   <stop stop-color="#6b6064" offset="1"/>
  </linearGradient>
  <linearGradient id="j" x1="1224" x2="1176.6" y1="741.11" y2="698.01" gradientUnits="userSpaceOnUse" xlink:href="#a"/>
  <linearGradient id="h" x1="1195.6" x2="1223.3" y1="687.27" y2="712.24" gradientUnits="userSpaceOnUse" xlink:href="#a"/>
  <radialGradient id="f" cx="863.48" cy="591.31" r="493.93" gradientTransform="matrix(-.88849 .51212 -.30041 -.52121 1808.3 527.56)" gradientUnits="userSpaceOnUse">
   <stop stop-color="#282828" offset="0"/>
   <stop stop-color="#2e302f" offset=".8023"/>
   <stop stop-color="#202020" offset="1"/>
  </radialGradient>
  <radialGradient id="e" cx="851.08" cy="1092.2" r="506.65" gradientTransform="matrix(-1.0085 .52131 -.2662 -.51504 2009.5 785.5)" gradientUnits="userSpaceOnUse">
   <stop stop-color="#1d1d1d" offset="0"/>
   <stop stop-color="#323534" offset="1"/>
  </radialGradient>
  <radialGradient id="d" cx="703.88" cy="241.45" r="295.96" gradientTransform="matrix(-2.2871 .82446 -.21653 -.60069 2643.4 -119.1)" gradientUnits="userSpaceOnUse">
   <stop stop-color="#363737" offset="0"/>
   <stop stop-color="#1b1b1a" stop-opacity="0" offset="1"/>
  </radialGradient>
  <radialGradient id="c" cx="734.09" cy="414.64" r="216.97" gradientTransform="matrix(-1.385 1.2916 -.57893 -.62079 2081.4 -254.19)" gradientUnits="userSpaceOnUse">
   <stop stop-color="#1a1a18" offset="0"/>
   <stop stop-color="#545554" stop-opacity="0" offset="1"/>
  </radialGradient>
  <radialGradient id="b" cx="1073.2" cy="787.56" r="93.959" gradientTransform="matrix(-1.6434 .7352 -.3024 -.67596 3119.2 532.94)" gradientUnits="userSpaceOnUse">
   <stop stop-color="#1a1a1a" offset="0"/>
   <stop stop-color="#1a1a1a" stop-opacity="0" offset="1"/>
  </radialGradient>
 </defs>
 <g transform="translate(-323.58 -249.55)">
  <path d="m434.79 635.15c-24.21 21.75-45.988 46.402-62.983 74.158-14.702 24.011-25.807 50.456-30.476 78.221-5.5959 33.279-1.7388 67.975 10.159 99.554 13.654 36.243 37.785 68.292 68.062 92.443 29.141 23.244 63.492 39.108 98.538 51.809 44.853 16.255 91.615 27.716 139.17 31.492 52.906 4.2008 106.17-1.1327 158.47-10.159 54.219-9.3572 107.83-22.712 159.49-41.65 43.442-15.926 85.475-35.8 124.95-59.936 49.251-30.112 94.377-66.774 135.11-107.68 30.096-30.225 58.256-63.446 75.173-102.6 13.34-30.876 19.271-65.657 12.19-98.538-8.8446-41.071-37.577-76.172-73.142-98.538-21.092-13.264-44.473-22.454-68.062-30.476-217.08-73.82-465.38-49.901-664.37 63.999-29.59 15.954-57.277 35.437-82.284 57.904" fill="url(#f)" stroke="#000"/>
  <path d="m529.26 574.2-50.793 27.428-39.618 33.523c-10.25 8.6727-20.315 17.598-29.46 27.428-11.176 12.014-21.142 25.107-30.476 38.603-9.7675 14.122-18.91 28.799-25.396 44.698-7.9977 19.603-11.811 40.799-12.19 61.967-0.36857 20.569 2.4729 41.171 8.1268 60.951 6.027 21.085 15.314 41.355 28.444 58.92 10.627 14.217 23.606 26.48 36.571 38.603 11.758 10.994 23.595 21.965 36.571 31.492 14.587 10.71 30.616 19.559 47.745 25.396 15.243 5.194 31.191 7.9619 46.729 12.19 19.846 5.4007 38.996 13.177 58.92 18.285 27.112 6.9515 55.321 8.8645 83.3 8.1268 29.733-0.784 59.387-4.5333 88.38-11.174-19.14-4.1011-38.468-7.3225-57.904-9.6506-25.715-3.0804-51.623-4.599-77.205-8.6348-25.497-4.0223-50.554-10.529-75.173-18.285-29.806-9.3901-59.147-20.679-86.348-36.063-22.565-12.762-43.679-28.413-60.951-47.745-14.47-16.196-26.091-34.8-35.555-54.348-9.4173-19.453-16.839-40.359-17.27-61.967-0.42541-21.345 5.9878-42.27 14.222-61.967 8.6012-20.576 19.254-40.277 31.492-58.92 8.7489-13.328 18.342-26.16 29.46-37.587 11.201-11.512 23.854-21.504 35.555-32.507 4.8524-4.563 9.5545-9.3117 14.825-13.385s11.188-7.4837 17.682-8.9642c7.1089-1.6206 14.61-0.87241 21.687-2.6235 3.5389-0.87554 6.9851-2.414 9.6276-4.9255 1.3213-1.2557 2.4282-2.7466 3.1799-4.4072s1.1427-3.4925 1.06-5.3134c-0.15895-3.4973-2.164-6.8583-5.166-8.6595s-6.9111-1.9888-10.072-0.48321" filter="url(#n)" stroke="#000"/>
  <path d="m1182.4 516.28c13.741 5.2002 27.18 11.2 40.226 17.958 10.517 5.4481 20.814 11.413 30.169 18.676 9.7792 7.5919 18.438 16.531 26.578 25.859 8.7144 9.987 16.926 20.536 22.986 32.324 8.6408 16.807 12.661 35.72 13.648 54.592 1.3591 25.993-2.9838 52.398-13.648 76.142-7.0398 15.674-16.698 29.999-25.86 44.536-9.3232 14.793-18.492 30.246-32.324 40.944-6.3991 4.9491-13.611 8.7232-20.42 13.091s-13.371 9.4949-17.65 16.36c-4.1475 6.6539-5.9552 14.631-10.594 20.953-2.3193 3.1607-5.4008 5.8804-9.112 7.1438-27.532 4.2925-4.314-20.083 6.0576-28.096 12.293-9.348 23.014-24.107 33.761-35.198 10.272-10.6 18.91-24.148 29.451-34.479 16.186-15.865 28.176-35.975 34.436-57.759s6.7751-45.191 1.4804-67.229c-3.3078-18.114-9.6477-35.671-18.676-51.719-9.4877-16.864-21.854-31.96-35.198-45.972-16.878-17.724-35.423-33.861-55.311-48.127" filter="url(#l)" stroke="#000"/>
  <path d="m1191.7 499.44-659.38 57.674c-45.033 24.639-95.33 59.963-130.03 97.795-28.852 31.461-52.182 68.101-66.062 108.47-12.501 36.356-17.204 75.664-7.1875 112.78 11.668 43.235 40.529 80.23 74.688 109.19 40.131 34.02 87.951 58.311 137.94 74.719 51.374 16.863 105.4 25.623 159.47 25.844 64.14 0.2616 127.86-11.426 189.62-28.719 56.448-15.804 111.68-36.356 163.78-63.219 56.202-28.977 106.27-63.673 154.31-104.78 44.573-38.137 86.565-83.206 110.88-136.59 14.491-31.824 17.946-65.591 15.438-100.47-2.879-40.024-20.002-67.04-45.438-93.031-26.579-27.16-61.751-48.35-98.031-59.656zm4.5 30.062c28.466 10.896 54.307 28.648 74.688 51.312 19.995 22.236 34.967 49.962 37.594 79.75 2.541 28.816-6.5395 57.578-19.812 83.281-19.116 37.019-46.845 69.013-77.219 97.531-32.914 30.903-69.22 58.146-107.69 81.781-49.015 30.115-101.55 54.372-155.94 73.125-43.247 14.913-87.652 26.364-132.56 35.063-49.515 9.5908-99.979 15.859-150.34 13.187-55.349-2.9358-110-16.741-160.5-39.594-34.58-15.65-67.532-35.758-94.469-62.5-33.557-33.314-57.378-78.163-58.406-125.44-0.88094-40.496 14.793-79.947 37.062-113.78 19.975-30.348 45.305-57.029 73.656-79.75 16.47-13.2 33.977-25.108 52.312-35.562z" fill="url(#e)"/>
  <path d="m1087.5312,498.4375h-.031l-2.0938.15625 .094,1.34375 2.0938-.15625 .5937-.0312-.094-1.34375zm8.5626,1.28125 1.4062.34375v.0312l1.25.25 .2812-1.3125-1.25-.28125v.0312l-1.375-.375zm-21.5-.25 .125,1.34375 2.6874-.25-.125-1.34375zm-10.7813,1 .125,1.34375 2.6875-.28125-.125-1.34375zm42.9687,1.28125 2.6563.4375 .2187-1.34375-2.6874-.40625zm-51.75-.40625-2,.1875 .125,1.34375 2-.1875h.031l.6563-.0625-.125-1.375zm62.4688,2.03125 .9375.15625 1.7187.25 .1876-1.34375-1.7188-.25-.9375-.125zm-75.25-.6875 .1562,1.34375 2.6876-.28125-.1563-1.34375zm-10.75,1.15625 .125,1.34375 2.6875-.28125-.125-1.34375zm96.7188,1.09375 2.6562.375 .1875-1.34375-2.6563-.375zm-105.6563-.125-1.8437.21875 .1562,1.34375 1.8438-.21875 .8437-.0625-.1563-1.375zm116.375,1.65625 2.6563.375 .2187-1.34375-2.6875-.375zm-128.9687-.21875 .1562,1.34375 2.6875-.3125-.1563-1.34375zm139.6562,1.8125 2.6875.40625 .1875-1.34375-2.6562-.40625zm-150.4375-.59375 .15625,1.34375 2.71875-.3125-.1563-1.34375zm161.125,2.25 2.6875.4375 .2188-1.34375-2.6876-.4375zm-171.875-.96875 .15625,1.34375 2.6875-.3125-.15625-1.34375zm-10.75,1.25 .15625,1.34375 2.6875-.3125-.15625-1.34375zm193.3125,1.5 2.6562.4375 .25-1.3125-2.6874-.46875zm-204.0625-.25 .15625,1.34375 2.6875-.3125-.15625-1.34375zm214.7187,2.1875 2.6563.5 .25-1.34375-2.6563-.5zm-225.4687-.90625 .15625,1.34375 2.6875-.34375-.15625-1.34375zm-10.75,1.28125 .15625,1.34375 2.6875-.34375-.15625-1.34375zm246.8125,1.75 2.5625.5625h.062l.3125-1.3125h-.062l-.031-.0312-2.5626-.5625zm-257.5625-.46875 .15625,1.34375 2.6875-.3125-.15625-1.34375zm-10.75,1.28125 .15625,1.34375 2.6875-.3125-.15625-1.34375zm278.8125,1.65625 .625.15625 2,.53125 .3438-1.3125-2-.53125h-.031l-.5937-.15625zm-287.8125-.5625-1.75.21875 .15625,1.34375 1.75-.21875 .9375-.125-.15625-1.34375zm-12.5,1.53125 .15625,1.34375 2.6875-.34375-.15625-1.34375zm310.6563,2.03125 1.3437.46875v-.0312l1.1875.46875 .4688-1.28125-1.1876-.4375h-.031v-.0312l-1.3438-.4375zm-321.4063-.71875 .15625,1.34375 2.6875-.34375-.15625-1.34375zm-10.75,1.3125 .15625,1.34375 2.6875-.34375-.15625-1.34375zm-10.75,1.3125 .15625,1.34375 2.6875-.34375-.15625-1.34375zm-10.75,1.3125 .15625,1.34375 2.6875-.3125-.15625-1.34375zm363.5313.875 2.0624,1.15625 .2813.15625 .6875-1.15625-.2812-.15625v-.0312h-.031l-2.0625-1.15625zm-374.2813.46875 .15625,1.34375 2.6875-.34375-.15625-1.34375zm-10.75,1.34375 .15625,1.34375 2.6875-.34375-.15625-1.34375zm-10.75,1.3125 .1875,1.34375 2.6875-.3125-.1875-1.34375zm-10.75,1.34375 .1875,1.34375 2.6875-.34375-.1875-1.34375zm415.75,1.09375 2.25,1.53125 .75-1.125-2.2187-1.53125zm-426.5.25 .1875,1.34375 2.6875-.34375-.1875-1.34375zm-10.71875,1.34375 .15625,1.34375 2.6875-.34375-.15625-1.34375zm-10.75,1.34375 .15625,1.34375 2.6875-.34375-.15625-1.34375zm-10.75,1.34375 .15625,1.34375 2.6875-.3125-.15625-1.34375zm467.56245,1.90625 2.1563,1.65625 .8125-1.0625-2.1562-1.65625zm-477.43745-.65625-.875.0937 .1875,1.34375 .84375-.0937 1.84375-.21875-.1875-1.34375zm-11.625,1.46875 .1875,1.34375 2.6875-.34375-.1875-1.34375zm-10.71875,1.34375 .15625,1.34375 2.6875-.34375-.15625-1.3125zm-10.75,1.375 .15625,1.34375 2.6875-.34375-.15625-1.34375zm-10.75,1.34375 .1875,1.34375 2.6875-.34375-.1875-1.34375zm529.7812,1.78125 2.0938,1.71875 .875-1.03125-2.0938-1.71875zm-540.5312-.40625 .1875,1.34375 2.6875-.34375-.1875-1.34375zm-10.71875,1.375 .15625,1.34375 2.6875-.34375-.15625-1.34375zm-10.75,1.375 .15625,1.34375 2.6875-.34375-.15625-1.34375zm-10.75,1.375 .1875,1.34375 2.6875-.34375-.1875-1.34375zm-10.71875,1.375 .15625,1.3125 2.6875-.3125-.1875-1.34375zm591.75,1.875 .25.21875h.031l1.75,1.5625 .9062-1.03125-1.7812-1.5625-.2813-.21875zm-602.5-.53125 .15625,1.34375 2.6875-.34375-.15625-1.34375zm-10.75,1.375 .1875,1.34375 2.65625-.34375-.15625-1.34375zm-10.75,1.375 .1875,1.34375 2.6875-.34375-.1875-1.34375zm-10.71875,1.375 .15625,1.34375 2.6875-.34375-.15625-1.34375zm-10.75,1.40625 .15625,1.3125 2.6875-.34375-.15625-1.34375zm-10.75,1.375 .1875,1.34375 2.6875-.34375-.1875-1.34375zm664.34375.78125 .4687.40625 1.5313,1.375 .9063-1-1.5313-1.375-.4687-.4375zm-675.0625.59375 .15625,1.34375 2.6875-.34375-.15625-1.34375zm-10.75,1.375 .1875,1.34375 2.65625-.34375-.15625-1.34375zm-10.75,1.40625 .1875,1.34375 2.6875-.34375-.1875-1.34375zm-10.71875,1.375 .15625,1.34375 2.6875-.34375-.15625-1.34375zm-10.75,1.40625 .1875,1.34375 2.65625-.34375-.15625-1.34375zm726.06255,1.0625 .5312.46875 1.5,1.34375 .9062-1-1.5-1.34375-.5312-.46875zm-731.12505-.40625-.0625.0312h-.0312l-.78125.28125h-.0312-.0312l-1.25.5625 .5625,1.21875 1.15625-.5 .0625-.0312 .625-.21875h.0625l.0625-.0312 .40625-.0625-.21875-1.3125zm-10.375,4.96875-1.5.8125 .65625,1.21875 1.46875-.84375v.0312l.90625-.46875-.65625-1.21875zm749.56245,2.6875 .2188.21875h.031l1.7813,1.5625 .9063-1-1.8126-1.59375-.2187-.1875zm-758.99995,2.53125-1.53125.875 .65625,1.1875 1.5625-.90625v.0312l.78125-.46875-.65625-1.1875zm767.18755,4.59375 1.2187,1.09375 .031.0312 .6874.6875 .9688-.96875-.7188-.6875-.031-.0312-1.2812-1.15625zm-777.81255,1.46875-.3125.1875 .6875,1.1875 .3125-.1875 2.03125-1.15625-.6875-1.1875zm-9.65625,5.65625 .6875,1.1875 2.3125-1.375-.6875-1.15625zm794.5938.78125 .6874.9375v.0312l.8438,1.25 1.125-.78125-.8438-1.25h-.031v-.0312l-.6875-.9375zm-803.9063,4.75 .6875,1.15625 2.3125-1.375-.6875-1.15625zm809.5937,4.34375 .8438,1.5625v.0312l.4062.78125 1.2188-.59375-.4375-.8125v-.0312l-.8437-1.5625zm-818.5937,1.09375-.28125.1875 .71875,1.15625 .25-.1875h.0312l2-1.21875-.6875-1.15625zm-7.8125,5.3125h-.0312l-1.375,1.125 .84375,1.03125 1.375-1.09375 .75-.5625-.8125-1.0625zm831.0625,3.3125 .062.0937v.0312l.9688,2.34375 1.25-.5-.9688-2.375-.062-.15625zm-840.90625,4.59375 .84375,1.0625 2.09375-1.71875-.84375-1.0625zm844.78125,5.46875 .6563,1.9375 .1874.59375 1.3126-.40625-.2188-.59375v-.0312l-.6562-1.96875zm-853.1875,1.375 .875,1.0625 2.09375-1.71875-.84375-1.0625zm-8.375,6.84375 .875,1.0625 2.09375-1.71875-.875-1.03125zm864.7812,2.0625 .2813.9375v.0312l.4375,1.625 1.3125-.34375-.4375-1.65625-.2812-.96875zm-873.18745,4.78125 .875,1.03125 2.09375-1.6875-.84375-1.0625zm-7.15625,5.71875-1.3125,1 .84375,1.0625 1.28125-1h.0312l.8125-.65625-.84375-1.0625zm883.0313-.0625 .5624,2.65625 1.3126-.28125-.5626-2.65625zm-892.7813,7.90625 .90625,1 2-1.8125-.90625-1zm894.9063,2.6875 .2812,1.53125v.0312l.1875,1.09375 1.3125-.21875-.1562-1.125-.2813-1.5625zm-900.93755,3.375-1.59375,1.71875 1,.90625 1.59375-1.6875 .25-.28125-.96875-.9375zm902.53125,7.3125 .3125,2.34375h-.031l.031.3125 1.375-.125-.031-.3125v-.0312l-.3126-2.375zm-911.3125,2.53125 1.03125.875 1.75-2.03125-1-.90625zm-7,8.28125 1.0625.875 1.71875-2.09375-1.03125-.875zm919.25-.0937 .062,2v.0312 .65625h1.3437v-.6875l-.031-2.0625zm-926.125,8.4687 1.0625.84375 1.71875-2.09375-1.0625-.84375zm925.75,3.625-.125,1.3125 1.3438.15625 .125-1.34375h.031l.094-1.375-1.3438-.125zm-932.53125,4.8125 1.0625.84375 1.6875-2.09375-1.0625-.84375zm931.18745,5.03125v.0312l-.4062,2.09375 1.3125.25 .4063-2.09375v-.0312l.094-.5625-1.3125-.21875zm-937.62495,3.1875-.25.34375 1.09375.78125 .25-.3125v-.0312l1.375-1.8125-1.09375-.8125zm934.81255,9.4375 1.3124.34375 .6563-2.625-1.3125-.34375zm-941.0313-.0312 1.125.71875 1.46875-2.28125-1.15625-.7188zm-5.59375,9.3125 1.1875.6875 1.34375-2.34375-1.15625-.6875zm943.68745,1.125 1.3126.375 .75-2.59375-1.2813-.375zm-948.9687,8.34375 1.1875.65625 1.28125-2.375-1.1875-.65625zm946.3125.375-.5,1.625 1.2812.40625 .5-1.65625 .3126-.9375-1.3126-.40625zm-951.375,9.21875 1.1875.625 1.25-2.40625-1.21875-.625zm948,2.40625-.125.46875 1.3125.3125 .125-.4375 .5937-2.15625-1.3124-.375zm-951.90625,5.4375-.90625,1.90625 1.25.5625 .875-1.875 .28125-.5625-1.21875-.5938zm949.28125,3.68745v.0312l-.6562,1.53125 1.25.5 .6562-1.53125v-.0312l.375-.96875-1.2812-.46875zm-954.3125,7.34375h-.0312l-.3125.75 1.25.53125 .3125-.75 .78125-1.71875-1.25-.5625zm950.1563,1.625-1.2188,2.25 1.2188.65625 1.1874-2.28125 .063-.125-1.1876-.625zm-954.37505,8.90625h-.0312l-.0937.3125 1.28125.46875 .0937-.3125 .84375-2.21875-1.25-.46875zm947.75005,2.6875 1.1562.6875 1.4062-2.3125-1.1562-.6875zm-950.9063,7.125v.0312l-.21875.875 1.3125.34375 .21875-.875 .5-1.75-1.3125-.34375zm945.125,2 1.1563.75 1.4687-2.28125-1.125-.71875zm-5.375,8.0625-.625.9375 1.125.75 .625-.90625 .9063-1.34375-1.125-.75zm-942.15625.28125v.0312l-.21875,1.125 1.34375.25 .21875-1.15625h-.0312l.3437-1.4687-1.3125-.28125zm935.34375,9.53125 1.0938.78125 1.5624-2.21875-1.0937-.78125zm-937.125,1.25-.125,1.125 1.34375.15625 .125-1.09375v-.0312l.25-1.53125-1.34375-.21875zm930.8125,7.53125 1.0937.78125 1.5938-2.1875-1.0938-.78125zm-931.96875,3.3125-.0625,1.0625 1.34375.0937 .0937-1.0625h-.0312l.15625-1.59375-1.34375-.125zm925.59375,5.4375 1.0625.78125 1.625-2.1875-1.0938-.78125zm-926.15625,5.15625-.0312,1.34375h1.375v-1.3125l.0625-1.375-1.34375-.0625zm921.12495,1.34375-1.6562,1.9375 1,.875 1.6875-1.9375 .125-.125-1.0625-.84375zm-8.2187,8.96875-.8125.84375 .9688.9375 .8124-.84375h.031l1.0313-1.125-.9688-.90625zm-912.90625-.34375v.0312l.0937,2.1875 1.34375-.0625-.0937-2.15625v-.0312-.46875h-1.375zm904.49995,8.875 .9376.96875 1.9374-1.90625-.9687-.96875zm-903.8437,1.5 .3125,2.6875 1.34375-.15625-.3125-2.6875zm896.125,6.09375 .9375.96875 1.9375-1.90625-.9375-.96875zm-894.28125,4.65625 .53125,2.21875 .0937.40625 1.3125-.3125-.0937-.40625-.53125-2.21875zm886.49995,2.84375 .9376,1 1.9374-1.875-.9374-1zm-7.1874,6.84375-.6876.625 .9376.96875 .6874-.625 1.2813-1.21875-.9375-1zm-876.9688.84375 .5625,2.59375v.0625l1.34375-.28125-.0312-.0625-.53125-2.59375zm868.375,7.1875 .9375.96875 1.9687-1.84375-.9062-1zm-866.09375,3.40625 .0312.0937 .59375,2.5625 1.3125-.3125-.59375-2.53125v-.0312-.0625zm858.18755,3.9375 .9062,1 2-1.8125-.9062-1zm-7.9688,7.34375 .9062,1 2-1.84375-.9062-1zm-847.6875-.71875 .5625,2.1875v.0312l.125.40625 1.28125-.34375-.0937-.4375-.5625-2.1875zm839.6563,8 .9062,1 2.0312-1.8125-.9062-1zm-836.7188,2.4375 .0312.15625 .0312.0312 .78125,2.40625 1.28125-.40625-.78125-2.40625v-.0312l-.0625-.125zm828.6562,4.75 .9063,1.03125 2.0313-1.78125-.9063-1.03125zm-824.93745,5.5 .71875,1.78125h.0312l.3125.71875 1.25-.5625-.34375-.6875v-.0312l-.71875-1.75zm817.93745.375h-.031l-1.2812.9375 .7812,1.09375 1.3125-.9375h.031l.8437-.65625-.8125-1.09375zm-10.0312,6.9375-.031.0312-.1563.0937 .75,1.125 .1563-.0937 .031-.0312 2.0625-1.375-.75-1.125zm-803.03125,2.4375 1.40625,2.34375 1.15625-.71875-1.40625-2.3125zm793.75005,3.5625 .7187,1.15625 2.3125-1.46875-.75-1.125zm-9.1563,5.78125 .7187,1.125 2.3126-1.4375-.7188-1.125zm-778.75-.15625 .78125,1.1875 .71875,1.0625 1.125-.75-.71875-1.0625-.78125-1.1875zm769.5625,5.84375 .6875,1.15625 2.3125-1.4375-.7188-1.15625zm-763.4375,3.09375 .75,1.0625 .8125,1.15625 1.125-.8125-.84375-1.125-.75-1.0625zm754.2187,2.59375 .6876,1.125 2.3124-1.40625-.7187-1.15625zm-9.25,5.625 .6876,1.15625 2.3124-1.40625-.6874-1.15625zm-738.5937.5625 1.1875,1.5625 .4375.59375 1.09375-.8125-.46875-.59375-1.15625-1.5625zm729.3437,5.0625 .7188,1.15625 2.3125-1.40625-.7187-1.15625zm-722.74995,3.53125 1.6875,2.125 1.0625-.84375-1.6875-2.125zm713.49995,2.125 .7188,1.15625 2.3125-1.40625-.7187-1.15625zm-9.2187,5.65625 .7187,1.15625 2.2813-1.40625-.6875-1.15625zm-697.4375.65625 1.75,2.0625 1.03125-.875-1.75-2.0625zm688.4688,4.90625v.0312l-.25.125 .75,1.15625 .2187-.15625 2.0625-1.28125-.7188-1.15625zm-681.31255,3.25 1.8125,2 1-.90625-1.84375-2zm671.99995,2.8125 .75,1.15625 2.25-1.5-.75-1.125zm-664.43745,4.96875 1.71875,1.625v.0312l.28125.21875 .90625-1-.25-.21875-.0312-.0312-1.6875-1.59375zm656.84375-.5-1.75.90625 .625,1.1875 1.75-.90625 .6563-.34375-.6563-1.1875zm-10.9687,5.4375-.4688.21875 .5625,1.21875 .4687-.1875v-.0312l2-.9375-.5937-1.21875zm-637.5938,2.15625 2.15625,1.65625 .8125-1.0625-2.125-1.65625zm628.6875,1.96875-1.375.625 .5313,1.21875 1.4062-.59375v-.0312l1.0625-.46875-.5625-1.25zm-620.0625,4.59375 1.78125,1.34375 .0312.0312 .375.25 .78125-1.09375-.375-.25-1.78125-1.34375zm610.1875-.1875-1.4063.59375 .5313,1.25 1.4375-.625 1.0625-.46875-.5625-1.21875zm-10.5937,4.59375-.75.3125 .5312,1.25 .75-.3125v-.0312l1.75-.75-.5312-1.21875zm-590.8438,2 .78125.53125 1.46875,1.03125 .75-1.125-1.4375-1-.75-.5625zm580.125,2.53125 .5312,1.25 2.5-1.0625-.5312-1.25zm-571.21875,3.65625 2.25,1.5 .78125-1.125-2.25-1.5zm561.21875.5 .5312,1.25 2.5-1.03125-.5312-1.25zm-10,4.09375 .5,1.25 2.5-1-.5-1.25zm-542.15625,1.375 2.28125,1.4375 .71875-1.125-2.28125-1.46875zm532.125,2.7188 .5,1.25 2.53125-1.0313-.53125-1.25zm-522.90625,3 .96875.5624 .0312.031 1.34375.7813 .6875-1.1876-1.34375-.7812h-.0312l-.96875-.5625zm512.84375,1.0312 .53125,1.25 2.5-1-.5-1.25zm-10.03125,4 .5,1.25 2.5-1-.5-1.25zm-493.3125.2812 1.59375.8126v.031l.8125.375 .59375-1.2188-.78125-.375h-.0312l-1.59375-.8437zm483.21875,3.6876 .5,1.2812 2.53125-1-.5-1.25zm-473.4375,1.0312 2.4375,1.125 .5625-1.25-2.46875-1.125zm463.375,2.9375 .5,1.25 2.5-1-.5-1.25zm-453.5,1.5 2.46875,1.0937 .53125-1.25-2.46875-1.0624zm443.40625,2.4063 .46875,1.25 2.53125-.9688-.46875-1.2812zm-433.46875,1.9062 .34375.1562 2.15625.9063 .5-1.25-2.125-.9063-.34375-.125zm425.5.9688-2.21875.6874 .40625,1.3126 2.21875-.6876v-.031h.0312l.34375-.125-.40625-1.2812zm-415.5,3.2187 2.3125.9687 .1875.063 .5-1.25-.1875-.063-2.3125-.9687zm402.9375.5625 .375,1.2812 2.59375-.75-.375-1.2812zm-9.125,2.5-1.3125.3438 .34375,1.3124 1.3125-.3437 1.3125-.375-.375-1.3125zm-383.78125,1.0312 2.53125,1 .46875-1.2812-2.5-1zm372,2.0313 .3125,1.3125 2.625-.6562-.3125-1.3126zm-361.90625,1.875 2.5625.9687 .46875-1.2812-2.5625-.9375zm351.40625.7813 .3125,1.3124 2.625-.6562-.3125-1.3125zm-341.21875,2.9374 .53125.1876 2.0625.6874 .40625-1.2812-2.03125-.6875-.5-.1875zm330.71875-.3437 .3125,1.3125 2.625-.625-.3125-1.3125zm-10.53125,2.5313 .3125,1.3124 2.625-.625-.3125-1.3124zm-309.8125,1.0937 2.625.7187 .34375-1.3124-2.625-.6876zm299.28125,1.4063 .3125,1.3124 2.625-.625-.3125-1.3124zm-288.71875,1.1562 1.28125.3125 1.34375.2813 .3125-1.3126-1.34375-.3124-1.3125-.2813zm278.15625,1.2812 .3125,1.3126 2.625-.5938-.28125-1.3125zm-267.625,1.125 2.65625.625 .28125-1.3124-2.625-.625zm257.0625,1.2813 .3125,1.3437 2.65625-.625-.3125-1.3124zm-246.46875,1.125 2.625.5937 .28125-1.3437-2.625-.5937zm235.90625,1.2187 .3125,1.3438 2.625-.5938-.28125-1.3124zm-225.34375,1.125 2.65625.5626 .28125-1.3126-2.65625-.5624zm217.21875.6563-2.4375.5313 .28125,1.3124 2.4375-.5 .21875-.062-.28125-1.3126zm-206.625,1.5937 2.65625.5626 .28125-1.3126-2.65625-.5624zm195.78125.6563h-.0312l-2.15625.375 .21875,1.3437 2.1875-.4062h.0312l.46875-.094-.25-1.3124zm-185.1875,1.5937 2.65625.5313 .28125-1.3125-2.65625-.5625zm174.4375-.062h-.0312l-2.09375.25 .125,1.3437 2.125-.25h.0312l.5625-.062-.1875-1.3438zm-163.8125,2.1874 2.65625.5313 .25-1.3437-2.65625-.5zm150.90625-.8437 .125,1.3437 2.71875-.25-.15625-1.3437zm-10.78125.9687 .125,1.3438 2.6875-.2188-.0937-1.3437zm-129.5,1.9063 1.84375.3437 .84375.1563 .21875-1.3437-.8125-.125h-.0312l-1.8125-.3438zm119.40625-1.0937-.6875.062 .0937,1.3438 .71875-.062 2-.1563-.125-1.3437zm-9.84375.7187-1.625.125 .0937,1.3437 1.625-.094 1.0625-.094-.0937-1.3438zm-12.4375.8437 .0937,1.3438 2.34375-.125h.0312l.3125-.031-.0937-1.3438h-.3125zm-86.4375,1.4376 2.6875.4062 .21875-1.3438-2.6875-.4062zm75.625-.7813 .0937,1.375 2.6875-.1875-.0625-1.3438zm-10.78125.625 .0625,1.375 2.6875-.1563-.0625-1.3437zm-54.125,1.75 2.6875.375 .1875-1.3437-2.6875-.375zm43.28125-1.1563 .0937,1.3438 2.6875-.1562-.0625-1.3438zm-10.78125.5 .0312,1.3438 2.71875-.125-.0625-1.3438zm-10.8125.375 .0312,1.3438 2.6875-.062-.0312-1.3437zm-10.875,1.4063 .59375.031 .0312.031 2.125.031 .0312-1.3437-2.09375-.062h-.0312l-.5625-.031z" fill="#4d4d4d" fill-opacity=".9955" filter="url(#m)"/>
  <path d="m488.63 732.68 6.0951-88.38c-1.2232-11.695 0.54088-23.691 5.0793-34.539 5.1612-12.337 13.695-22.921 20.317-34.539 15.628-27.416 20.142-59.578 30.476-89.395 11.341-32.723 29.677-62.527 48.761-91.427 20.662-31.291 42.465-61.995 68.062-89.395 8.696-9.3084 17.882-18.275 28.444-25.396 29.071-19.603 65.624-23.541 100.57-26.412 35.827-2.9432 71.887-5.3584 107.68-2.0317 27.401 2.5466 54.366 8.4333 81.269 14.222 15.982 3.4387 31.98 6.8498 47.745 11.174 15.407 4.2265 30.773 9.3566 46.729 10.159 9.8604 0.4956 19.96-0.65529 29.46 2.0317 7.091 2.0056 13.484 6.0886 18.852 11.138s9.7613 11.05 13.656 17.306c10.365 16.651 17.318 35.182 23.365 53.84 7.1439 22.044 13.117 44.458 18.285 67.047 3.9257 17.158 7.3891 34.426 10.159 51.809 2.9544 18.543 5.1172 37.202 7.111 55.872 2.6727 25.028 5.0433 50.088 7.111 75.173-8.5801 47.075-31.972 91.339-66.031 124.95-32.745 32.314-74.503 54.414-118.11 69.065s-89.258 22.202-134.84 28.457c-87.859 12.059-179.76 19.121-263.11-11.174-53.787-19.551-101.89-54.47-137.14-99.554" fill="#2e302f"/>
  <path d="m598.34 460.43c17.645 5.7556 37.01 6.1143 54.856 1.0159 24.74-7.0679 45.308-23.823 67.047-37.587 30.092-19.053 63.198-32.721 95.49-47.745 22.667-10.546 45.016-21.802 68.062-31.492 31.142-13.093 63.497-23.29 96.506-30.476 24.817-5.4021 50.098-9.1322 74.158-17.27 10.063-3.4036 19.966-7.5907 30.476-9.1427 8.1496-1.2035 16.628-0.75591 24.38 2.0317 6.88 2.4741 13.026 6.7225 18.347 11.736s9.8635 10.792 14.16 16.708c19.712 27.138 34.991 58.906 35.555 92.443 0.5072 30.158-11.146 59.838-29.602 83.695s-43.394 42.171-70.352 55.701c-53.916 27.059-114.93 35.364-173.31 50.569-50.227 13.082-99.574 31.565-151.33 35.486-25.877 1.9606-52.258 0.1672-76.996-7.6724s-47.801-21.957-64.242-42.036c-14.159-17.291-23.125-38.78-25.455-61.007s1.9843-45.108 12.249-64.96" fill="url(#d)"/>
  <path d="m862.46 250.14c-26.144 0.13007-52.28 1.8272-78.221 5.0793-26.852 3.3662-53.867 8.5179-78.221 20.317-10.17 4.9273-19.81 10.994-28.444 18.285-15.645 13.211-27.657 30.109-39.618 46.729-17.178 23.869-34.615 47.568-50.793 72.126-9.6901 14.709-18.946 29.76-26.412 45.714-6.5912 14.083-11.753 28.798-16.254 43.682-23.945 120.55 22.024 156.79 72.976 74.404-2.8686-10.982 25.46-27.116 29.747-37.626s10.981-19.862 18.164-28.651c10.314-12.621 21.745-24.288 33.523-35.555 12.169-11.641 24.768-22.907 38.603-32.507 19.196-13.321 40.511-23.258 61.967-32.507 16.864-7.2696 33.889-14.157 50.793-21.333 21.246-9.0194 42.316-18.501 63.999-26.412 30.666-11.189 62.427-19.187 94.475-25.396 25.107-4.8643 50.462-8.6504 75.173-15.238 13.459-3.5879 26.698-8.001 39.618-13.206-5.8945-9.9446-15.45-17.663-26.412-21.333-13.874-4.6454-29.197-2.7976-43.112 1.7243s-26.842 11.582-40.188 17.577c-41.462 18.623-86.714 26.86-130.03 40.634-24.35 7.7431-48.137 17.258-71.11 28.444-31.637 18.287-63.469 36.236-95.49 53.84-22.058 12.127-44.321 24.143-68.062 32.507-3.9953 1.4076-8.0783 2.7201-12.304 3.0153s-8.6583-0.51354-12.077-3.0153c-1.9335-1.4151-3.4837-3.332-4.5423-5.4816s-1.631-4.527-1.755-6.9199c-0.24811-4.7857 1.2897-9.546 3.725-13.673 4.8705-8.2545 12.995-13.948 19.842-20.655 15.672-15.349 24.694-36.093 37.587-53.84 13.115-18.053 30.118-32.846 46.729-47.745 15.528-13.927 31.112-28.274 49.777-37.587 18.304-9.1319 38.726-12.993 58.92-16.254 11.488-1.855 23.003-3.5484 34.539-5.0793l-7.111-4.0634" clip-path="url(#t)" fill="#666" filter="url(#s)" opacity=".7" stroke="#000"/>
  <path d="m668.43 516.3c-4.0634 8.1268-20.317 24.381-24.381 58.92s12.19 52.825 22.349 73.142 20.317 40.634 34.539 56.888 16.254 32.507 38.603 42.666 134.09-56.888 176.76-67.047 87.364-121.9 91.427-142.22 34.539-164.57 10.159-172.7-138.16 50.793-176.76 58.92-89.395 56.888-119.87 67.047-52.825 24.381-52.825 24.381z" fill="url(#c)" filter="url(#o)"/>
  <path d="m491.67 646.33-2.0317 88.38c-2.4507 4.1921-4.495 8.6215-6.0951 13.206-6.4814 18.57-5.4038 39.312 1.0158 57.904 8.7973 25.478 27.131 46.9 48.761 62.983 31.943 23.751 70.752 36.544 109.71 44.698 33.751 7.0637 68.142 10.929 102.6 12.19 35.904 1.3139 71.866-0.19191 107.68-3.0476 38.355-3.0582 76.783-7.7033 113.78-18.285 22.999-6.579 45.306-15.416 67.047-25.396 25.485-11.699 50.237-24.983 74.158-39.618 8.574-5.2458 17.042-10.665 25.396-16.254-0.6401-14.929-3.742-29.749-9.1427-43.682-5.2571-13.562-11.505-23.698-22.944-32.682-11.385-8.9419-25.848-13.388-40.275-12.19-56.026 6.5294-100.39 18.691-148.08 26.587-42.243 6.994-85.201 8.8023-128 10.159-38.312 1.2141-76.792 0.96272-114.79-4.0634-36.382-4.8121-72.337-14.06-105.65-29.46-22.421-10.365-44.239-24.12-57.904-44.698-5.5598-8.3724-9.6361-17.708-12.19-27.428-1.6581-6.3102-2.6808-12.787-3.0476-19.301" fill="url(#k)"/>
  <path d="m1088.3 738.6c1.4366 2.8733 15.922 9.7117 25.346 28.887 1.4251 2.8996 8.5799 16.605 7.4173 19.204-1.9059 3.5324-9.8423 6.1947-9.8423 6.1947s4.0957 8.1716 6.969 13.2 11.134 19.574 11.134 19.574 3.7711-0.53874 4.4894-4.1303 2.5051-9.4434-0.3681-15.19c-0.5876-6.3815-3.802-9.3817-5.2387-17.283s-6.425-13.858-7.8617-17.45-12.596-27.021-12.596-27.021z" filter="url(#q)"/>
  <path d="m1226.6 637.69 2.0317 23.365 13.714 23.873c0.5079 3.1871 0.6784 6.4278 0.5079 9.6506-0.6454 12.197-6.0714 23.537-10.158 35.047-2.8783 8.1058-5.1676 16.532-9.6507 23.873-3.6538 5.9832-8.729 11.105-14.73 14.73-5.0699 3.0623-10.709 5.0291-16.254 7.111-1.388 0.52111-2.7783 1.0524-4.2241 1.3809s-2.9601 0.44923-4.4107 0.14287c-1.9908-0.42047-3.7643-1.6389-5.0525-3.214s-2.1154-3.4899-2.6086-5.464c-0.9865-3.9482-0.6775-8.0883-0.9736-12.147-0.349-4.7838-1.5409-9.4591-2.494-14.16s-1.6719-9.5264-1.0615-14.284c0.9374-7.3058 4.9444-13.887 9.7016-19.511s10.324-10.512 15.187-16.044c10.061-11.445 16.858-25.331 23.365-39.11 2.3932-5.0686 4.7636-10.148 7.111-15.238" fill="url(#j)"/>
  <path d="m1204.3 570.14c0.3718-1.083 1.2042-1.9993 2.2466-2.4731s2.2802-0.49847 3.3406-0.0665c0.8898 0.36245 1.6387 1.0267 2.1873 1.8154s0.9055 1.6986 1.1378 2.6309c0.4644 1.8646 0.4422 3.8137 0.7383 5.7123 0.4637 2.9734 1.7006 5.7733 3.1401 8.4161s3.0919 5.1669 4.4788 7.8376c3.4128 6.572 5.1521 13.94 5.5873 21.333 0.3483 5.9169-0.119 11.852 0 17.777 0.1362 6.7825 1.0373 13.613 0 20.317-0.6578 4.2513-2.091 8.3672-4.0635 12.19-1.996 3.8685-4.5317 7.4307-6.7122 11.198s-4.0311 7.8348-4.4622 12.166c-0.1879 1.8878-0.1025 3.792-0.2062 5.6864s-0.4109 3.8216-1.3176 5.4881c-0.991 1.8215-2.6298 3.2062-4.3621 4.3459s-3.593 2.0792-5.2885 3.273c-3.3804 2.3801-6.0014 5.7032-8.124 9.251s-3.7865 7.346-5.5901 11.066c-1.7129 3.533-3.625 7.0917-6.603 9.6506-2.0525 1.7637-4.5507 2.9821-7.1762 3.6379s-5.3759 0.75769-8.0617 0.42556c-8.0399-0.99423-15.442-6.0537-19.41-13.116s-4.456-15.946-1.4152-23.455c1.2051-2.9759 2.9324-5.7395 5.0792-8.1268l15.746-39.11 22.857-39.11c6.3546-9.7784 11.016-20.654 13.714-31.999 1.3091-5.504 2.1596-11.117 2.5396-16.762" fill="#6e6467"/>
  <path d="m1197.4 535.67c2.0609 12.935 2.1824 26.178 0.3592 39.148-1.5669 11.147-4.5788 22.123-9.3382 32.324-3.3983 7.2837-7.6597 14.126-11.493 21.19-4.1117 7.5774-7.7323 15.413-11.852 22.986-3.868 7.11-8.1725 13.981-11.852 21.19-2.6538 5.199-4.9758 10.56-7.5423 15.803-0.5542 1.132-1.1244 2.2713-1.41 3.4989s-0.2624 2.5732 0.3325 3.6843c0.4462 0.83327 1.1977 1.4901 2.066 1.8638s1.8466 0.46932 2.7796 0.3173 1.8197-0.54644 2.5864-1.0992 1.4153-1.2613 1.9394-2.0478c1.0484-1.5731 1.5915-3.4297 1.9405-5.2876s0.5187-3.747 0.8995-5.5987c1.4643-7.1207 5.9055-13.192 9.6973-19.395 3.0754-5.0306 5.778-10.278 8.6198-15.444 2.5052-4.5544 5.1203-9.0489 7.5424-13.648s4.6603-9.3191 7.5423-13.648c2.1368-3.2096 4.6118-6.1802 6.8241-9.3382 3.3036-4.7157 6.0311-9.8879 7.5423-15.444 1.1672-4.2913 1.6067-8.7903 3.2324-12.93 0.6894-1.7553 1.587-3.4309 2.1427-5.233 0.2779-0.90106 0.4688-1.8337 0.495-2.7763s-0.116-1.8968-0.4827-2.7655c-0.2908-0.68889-0.7231-1.3204-1.2765-1.8232s-1.229-0.87461-1.9559-1.0501c-0.7861-0.18974-1.627-0.1461-2.3892 0.124s-1.4429 0.76565-1.9341 1.408-0.7911 1.4292-0.8521 2.2355 0.1172 1.6293 0.5063 2.3382c-0.208-2.7483-0.208-5.5123 0-8.2607 0.2537-3.3534 0.8169-6.6949 0.7183-10.056-0.1478-5.0394-1.7708-9.9005-3.2324-14.726-0.758-2.5025-1.4765-5.0171-2.155-7.5423" fill="url(#i)"/>
  <path d="m1228.7 661.06 13.714 23.873c0.5079 3.1871 0.6784 6.4278 0.5079 9.6506-0.6454 12.197-6.0714 23.537-10.158 35.047-2.8783 8.1058-5.1676 16.532-9.6507 23.873-3.6538 5.9832-8.729 11.105-14.73 14.73-5.0699 3.0623-10.709 5.0291-16.254 7.111-1.388 0.52111-2.7783 1.0524-4.2241 1.3809s-2.9601 0.44923-4.4107 0.14287c-1.9908-0.42047-3.7643-1.6389-5.0525-3.214s-2.1154-3.4899-2.6086-5.464c-0.9865-3.9482-0.6775-8.0883-0.9736-12.147-0.349-4.7838-1.5409-9.4591-2.494-14.16s-1.6719-9.5264-1.0615-14.284c0.9374-7.3058 4.9444-13.887 9.7016-19.511s10.324-10.512 15.187-16.044c10.061-11.445 16.858-25.331 23.365-39.11 2.3932-5.0686 4.0453-9.6092 6.7518-14.968z" fill="url(#h)" filter="url(#p)"/>
  <path d="m1127.6 776.36c-6.0951 8.1269-65.015 30.476-87.364 40.634s-81.269 38.603-81.269 38.603l4.0634 58.92 182.85-72.126z" clip-path="url(#u)" fill="url(#b)" filter="url(#r)"/>
  <path d="m1123.5 722.44c3.2853-4.6628 5.5559-9.9744 8.7988-14.667 1.6215-2.3462 3.496-4.5423 5.7481-6.2921s4.9003-3.0425 7.721-3.464c3.1557-0.4715 6.4117 0.16509 9.3381 1.4366 5.2314 2.2731 9.4304 6.4908 12.584 11.243s5.3593 10.059 7.5286 15.334c3.4618 8.4182 6.9028 16.921 8.6199 25.859 1.6416 8.5456 1.6543 17.487-0.7184 25.859-2.1257 7.5006-6.1502 14.436-11.493 20.113-4.0294 4.2816-8.7597 7.83-13.189 11.697s-8.6425 8.1668-11.234 13.444c-1.1718 2.3862-2.0208 4.9827-3.7238 7.024-0.8515 1.0206-1.9199 1.886-3.1645 2.3526s-2.6745 0.50729-3.8865-0.0385c-1.1767-0.52984-2.7894-1.9287-3.3473-3.0924s-3.5015-1.0139-3.6564-2.295c2.9013-6.7883 3.8205-12.579 3.4121-18.317-0.5727-8.0468-4.0549-15.55-7.1832-22.986-2.5369-6.0301-4.8796-12.156-7.9015-17.958-3.4398-6.6047-7.3694-11.473-11.852-17.419-2.5665-3.4044-11.037-8.7328-17.33-11.583 10.411-1.9683 28.886-7.676 34.928-16.252z" fill="url(#g)"/>
 </g>
</svg>
