<svg xmlns="http://www.w3.org/2000/svg" xml:space="preserve" fill-rule="evenodd"
  stroke-linecap="round" stroke-linejoin="round" stroke-miterlimit="1.5" clip-rule="evenodd"
  viewBox="0 0 1000 1000">

  <!-- Ware -->
  <g stroke="#000" stroke-width="12" transform-origin="52.4% 60.9%">
    <path fill="#191919" d="M626.049 431.025c97.729 56.424 131.264 181.576 74.84 279.306-56.424 97.729-181.576 131.263-279.305 74.839-97.73-56.424-131.264-181.576-74.84-279.305 56.424-97.729 181.576-131.264 279.305-74.84Zm-41.421 71.743c58.133 33.563 78.081 108.009 44.518 166.141-33.563 58.133-108.009 78.081-166.141 44.518-58.133-33.563-78.081-108.008-44.518-166.141 33.563-58.133 108.009-78.08 166.141-44.518Z"/>
    <path fill="#bd100d" d="M309.347 859.127c-118.753-101.285-152.242-276.111-71.425-416.091 91.1-157.789 293.166-211.933 450.956-120.833C829.67 403.49 887.944 573.124 834.146 720.821l38.165 27.186-55 95.262-42.683-20.447c-89.096 104.247-234.921 142.637-363.926 95.463l-24.688 34.658-95.262-55 18.595-38.816Zm28.015-58.479 54.663-114.104 126.169-67.478.845 147.129-70.602 99.115c95.123 27.925 198.744.565 267.693-70.513l-110.217-52.801-67.479-126.169 147.129-.845 95.586 68.088c33.792-115.793-14.272-244.08-123.342-307.051-128.088-73.952-292.118-30-366.069 98.088-62.71 108.616-40.639 243.077 45.624 326.541Z"/>
    <animateTransform attributeName="transform" attributeType="XML" type="rotate" from="200" to="0" dur="1.2s" calcMode="spline" keyTimes="0;1" keySplines="0.25 0.46 0.45 1" additive="sum"/>
  </g>

  <!-- Fedora -->
  <clipPath id="a">
    <path d="M804.884-17.419 11 122.565l96.081 544.903 793.884-139.984-96.081-544.903z"/>
  </clipPath>

  <g clip-path="url(#a)">
    <g stroke="#000" stroke-linecap="butt" stroke-miterlimit="4">
      <path fill="#161616" stroke-width="16.96" d="M698.386 217.28c-8.687-20.861-39.926-169.625-83.214-159.489C460.589 90.024 271.788-43.391 218.619 336.712c-329.656 232.289 28.726 309.061 311.15 246.816 279.098-61.402 483.278-307.28 168.619-366.248h-.002Z"/>
      <path fill="#3f3f3f" stroke-linejoin="miter" stroke-width="8.48" d="M714.182 264.263c-159.721 145.105-468.348 127.368-490.288 74.01-13.596 22.303 12.765 72.392 12.765 72.392 95.587 87.648 468.192-.447 496.723-80.121 1.453-20.161-15.495-59.471-19.2-66.282v.001Z"/>
    </g>
    <path fill="url(#b)" d="M614.264 95.273c-53.377-32.887-244.745 60.571-265.921 96.652-.354 54.801 249.85-31.615 265.921-96.652Z"/>
    <path fill="url(#c)" d="M624.9 155.594c-12.923 54.529-77.078 187.753-240.37 99.611 119.854-16.157 168.298-39.628 240.37-99.611Z"/>
    <path fill="url(#d)" d="M556.457 65.653c-29.02 20.046-218.379 110.662-243.213 97.625-25.989-5.37-21.982-11.053-10.265-15.608 21.557 8.639 56.835 9.884 253.478-82.017Z"/>
    <path fill="#fff" fill-opacity=".31" stroke="#000" stroke-linecap="butt" stroke-linejoin="miter" stroke-miterlimit="4" stroke-width="3.98" d="M689.716 295.938c-26.59 19.617-113.046 54.767-146.623 63.175-21.308 21.174-4.484 45.577 8.635 63.169 65.574-11.562 137.883-41.729 153.482-66.874 8.314-23.859.478-39.895-15.495-59.472l.001.002Z"/>
  </g>

  <defs>
    <linearGradient id="b" x1="0" x2="1" y1="0" y2=".003" gradientTransform="matrix(21.6 4.3 4.3 -21.7 486.295 149.061)" gradientUnits="userSpaceOnUse">
      <stop offset="0" stop-opacity=".41"/>
      <stop offset="1" stop-opacity="0"/>
    </linearGradient>
    <linearGradient id="c" x1="0" x2="1" y1="0" y2=".003" gradientTransform="matrix(62.8 92.5 92 -62.9 500.216 190.637)" gradientUnits="userSpaceOnUse">
      <stop offset="0" stop-color="#fff" stop-opacity=".17"/>
      <stop offset="1" stop-color="#fff" stop-opacity=".37"/>
    </linearGradient>
    <linearGradient id="d" x1="0" x2="1" y1="0" y2="0" gradientTransform="matrix(-269.9 47.6 47.8 271 556.457 65.653)" gradientUnits="userSpaceOnUse">
      <stop offset="0" stop-color="#fff" stop-opacity=".17"/>
      <stop offset="1" stop-color="#fff" stop-opacity=".37"/>
    </linearGradient>
  </defs>

</svg>