<svg xmlns="http://www.w3.org/2000/svg" xml:space="preserve" fill-rule="evenodd" stroke-linecap="round" stroke-linejoin="round" stroke-miterlimit="1.5" clip-rule="evenodd" viewBox="0 0 1000 1000">
  <!-- Ware -->
  <g stroke="#000" stroke-width="12" transform-origin="54% 60%">
    <path fill="#191919" d="M539.599 390.394c116.032 0 210.235 94.203 210.235 210.235 0 116.032-94.203 210.235-210.235 210.235-116.031 0-210.234-94.203-210.234-210.235 0-116.032 94.203-210.235 210.234-210.235Zm0 81.25c71.189 0 128.985 57.796 128.985 128.985 0 71.189-57.796 128.985-128.985 128.985-71.188 0-128.984-57.796-128.984-128.985 0-71.189 57.796-128.985 128.984-128.985Z"/>
    <path fill="#bd100d" d="M337.815 863.054c-78.352-60.728-128.822-155.741-128.822-262.449 0-183.167 148.708-331.874 331.874-331.874 183.166 0 331.874 148.707 331.874 331.874 0 39.568-6.94 77.529-19.668 112.73l24.097 14.949-44.608 93.636-32.74-13.832c-60.845 75.818-154.272 124.391-258.955 124.391-35.875 0-70.428-5.705-102.801-16.256l-20.915 33.968-95.304-50.306 15.968-36.831Zm26.899-62.043 43.946-101.363 113.315-68.711 10.204 132.433-58.79 95.483c21.556 5.625 44.17 8.619 67.478 8.619 77.5 0 147.329-33.107 196.102-85.939l-114.153-48.228-68.093-115.635 132.594-7.173 108.971 67.607c7.444-24.53 11.447-50.551 11.447-77.499 0-147.289-119.58-266.868-266.868-266.868S273.999 453.316 273.999 600.605c0 79.81 35.11 151.484 90.715 200.406Z"/>
    <animateTransform attributeName="transform" attributeType="XML" type="rotate" from="200" to="0" dur="1s" calcMode="spline" keyTimes="0;1" keySplines="0.25 0.46 0.45 1" additive="sum"/>
  </g>
  
  <clipPath id="a">
    <path d="M852.252 25.809 91.429 105.774l56.319 535.838 760.823-79.966-56.319-535.837z"/>
  </clipPath>

  <!-- Fedora -->
  <g clip-path="url(#a)">
    <g stroke="#000" stroke-linecap="butt" stroke-miterlimit="4">
      <path fill="#161616" stroke-width="16.31" d="M736.446 246.181c-6.9-20.868-27.019-167.509-68.663-160.719C519.32 105.865 348.993-36.979 274.441 328.33c-327.012 202.305 7.536 302.103 278.991 261.571 268.251-39.948 477.286-264.291 183.016-343.721l-.002.001Z"/>
      <path fill="#3f3f3f" stroke-linejoin="miter" stroke-width="8.16" d="M748.417 292.911c-160.513 129.631-451.694 90.66-469.078 37.306-14.297 20.697 7.482 71.188 7.482 71.188 84.955 91.837 443.468 32.562 475.561-42.786 2.66-19.473-10.89-58.835-13.966-65.709l.001.001Z"/>
    </g>
    <path fill="url(#b)" d="M664.537 121.791c-48.462-35.693-235.661 41.562-258.014 75.102-3.823 53.184 238.653-13.088 258.014-75.102Z"/>
    <path fill="url(#c)" d="M670.771 181.109c-15.71 52.033-84.953 176.864-234.002 79.776 114.546-7.241 161.922-26.616 234.002-79.776Z"/>
    <path fill="url(#d)" d="M611.672 88.958c-28.762 17.418-213.877 92.055-236.569 77.647-24.274-7.046-20.117-12.281-8.729-15.878 19.867 9.908 53.201 13.602 245.297-61.769h.001Z"/>
    <path fill="#fff" fill-opacity=".31" stroke="#000" stroke-linecap="butt" stroke-linejoin="miter" stroke-miterlimit="4" stroke-width="3.83" d="M723.228 321.941c-26.433 17.174-110.556 45.209-142.892 51.006-21.53 19.057-7.148 43.936 4.157 61.942 62.843-6.605 133.25-30.799 149.625-54.114 9.393-22.579 2.992-38.702-10.891-58.835l.001.001Z"/>
  </g>

  <defs>
    <linearGradient id="b" x1="0" x2="1" y1="0" y2=".02" gradientTransform="matrix(20.2 5.7 5.4 -20.7 539.91 164.997)" gradientUnits="userSpaceOnUse">
      <stop offset="0" stop-opacity=".41"/>
      <stop offset="1" stop-opacity="0"/>
    </linearGradient>
    <linearGradient id="c" x1="0" x2="1" y1="0" y2=".023" gradientTransform="matrix(53.6 94.2 91.1 -54.6 550.449 206.345)" gradientUnits="userSpaceOnUse">
      <stop offset="0" stop-color="#fff" stop-opacity=".17"/>
      <stop offset="1" stop-color="#fff" stop-opacity=".37"/>
    </linearGradient>
    <linearGradient id="d" x1="0" x2="1" y1="0" y2="0" gradientTransform="matrix(-258.7 27.2 28 266.5 611.672 88.958)" gradientUnits="userSpaceOnUse">
      <stop offset="0" stop-color="#fff" stop-opacity=".17"/>
      <stop offset="1" stop-color="#fff" stop-opacity=".37"/>
    </linearGradient>
  </defs>
  
</svg>
