<?xml version="1.0" encoding="UTF-8" standalone="no"?><!DOCTYPE svg PUBLIC "-//W3C//DTD SVG 1.1//EN" "http://www.w3.org/Graphics/SVG/1.1/DTD/svg11.dtd"><svg width="100%" height="100%" viewBox="0 0 1000 1000" version="1.1" xmlns="http://www.w3.org/2000/svg" xmlns:xlink="http://www.w3.org/1999/xlink" xml:space="preserve" xmlns:serif="http://www.serif.com/" style="fill-rule:evenodd;clip-rule:evenodd;stroke-linecap:round;stroke-linejoin:round;stroke-miterlimit:1.5;"><g id="Logo"><g id="AW-Logo" serif:id="AW Logo"><path id="Ring_In" d="M539.599,390.394c116.032,0 210.235,94.203 210.235,210.235c0,116.032 -94.203,210.235 -210.235,210.235c-116.031,-0 -210.234,-94.203 -210.234,-210.235c-0,-116.032 94.203,-210.235 210.234,-210.235Zm0,81.25c71.189,0 128.985,57.796 128.985,128.985c0,71.189 -57.796,128.985 -128.985,128.985c-71.188,-0 -128.984,-57.796 -128.984,-128.985c-0,-71.189 57.796,-128.985 128.984,-128.985Z" style="fill:#191919;stroke:#000;stroke-width:12px;"/><path id="Ring_Out" d="M337.815,863.054c-78.352,-60.728 -128.822,-155.741 -128.822,-262.449c-0,-183.167 148.708,-331.874 331.874,-331.874c183.166,-0 331.874,148.707 331.874,331.874c-0,39.568 -6.94,77.529 -19.668,112.73l24.097,14.949l-44.608,93.636l-32.74,-13.832c-60.845,75.818 -154.272,124.391 -258.955,124.391c-35.875,-0 -70.428,-5.705 -102.801,-16.256l-20.915,33.968l-95.304,-50.306l15.968,-36.831Zm26.899,-62.043l43.946,-101.363l113.315,-68.711l10.204,132.433l-58.79,95.483c21.556,5.625 44.17,8.619 67.478,8.619c77.5,0 147.329,-33.107 196.102,-85.939l-114.153,-48.228l-68.093,-115.635l132.594,-7.173l108.971,67.607c7.444,-24.53 11.447,-50.551 11.447,-77.499c-0,-147.289 -119.58,-266.868 -266.868,-266.868c-147.288,-0 -266.868,119.579 -266.868,266.868c0,79.81 35.11,151.484 90.715,200.406Z" style="fill:#bd100d;stroke:#000;stroke-width:12px;"/></g><clipPath id="_clip1"><polygon id="Fedora" points="852.252,25.809 91.429,105.774 147.748,641.612 908.571,561.646 852.252,25.809 "/></clipPath><g clip-path="url(#_clip1)"><g><g><path d="M736.446,246.181c-6.9,-20.868 -27.019,-167.509 -68.663,-160.719c-148.463,20.403 -318.79,-122.441 -393.342,242.868c-327.012,202.305 7.536,302.103 278.991,261.571c268.251,-39.948 477.286,-264.291 183.016,-343.721l-0,0l-0.002,0.001Z" style="fill:#161616;stroke:#000;stroke-width:16.31px;stroke-linecap:butt;stroke-miterlimit:4;"/><path d="M748.417,292.911c-160.513,129.631 -451.694,90.66 -469.078,37.306c-14.297,20.697 7.482,71.188 7.482,71.188c84.955,91.837 443.468,32.562 475.561,-42.786c2.66,-19.473 -10.89,-58.835 -13.966,-65.709l0,-0l0.001,0.001Z" style="fill:#3f3f3f;stroke:#000;stroke-width:8.16px;stroke-linecap:butt;stroke-linejoin:miter;stroke-miterlimit:4;"/></g><g><path d="M664.537,121.791c-48.462,-35.693 -235.661,41.562 -258.014,75.102c-3.823,53.184 238.653,-13.088 258.014,-75.102Z" style="fill:url(#_Linear2);"/><path d="M670.771,181.109c-15.71,52.033 -84.953,176.864 -234.002,79.776c114.546,-7.241 161.922,-26.616 234.002,-79.776Z" style="fill:url(#_Linear3);"/><path d="M611.672,88.958c-28.762,17.418 -213.877,92.055 -236.569,77.647c-24.274,-7.046 -20.117,-12.281 -8.729,-15.878c19.867,9.908 53.201,13.602 245.297,-61.769l0.001,-0Z" style="fill:url(#_Linear4);"/></g><path d="M723.228,321.941c-26.433,17.174 -110.556,45.209 -142.892,51.006c-21.53,19.057 -7.148,43.936 4.157,61.942c62.843,-6.605 133.25,-30.799 149.625,-54.114c9.393,-22.579 2.992,-38.702 -10.891,-58.835l0.001,0.001Z" style="fill:#fff;fill-opacity:0.31;stroke:#000;stroke-width:3.83px;stroke-linecap:butt;stroke-linejoin:miter;stroke-miterlimit:4;"/></g></g></g><defs><linearGradient id="_Linear2" x1="0" y1="0" x2="1" y2="0.0198404" gradientUnits="userSpaceOnUse" gradientTransform="matrix(20.1744,5.73873,5.44725,-20.7394,539.91,164.997)"><stop offset="0" style="stop-color:#000;stop-opacity:0.41"/><stop offset="1" style="stop-color:#000;stop-opacity:0"/></linearGradient><linearGradient id="_Linear3" x1="0" y1="0" x2="1" y2="0.0229085" gradientUnits="userSpaceOnUse" gradientTransform="matrix(53.5636,94.1913,91.1374,-54.5714,550.449,206.345)"><stop offset="0" style="stop-color:#fff;stop-opacity:0.17"/><stop offset="1" style="stop-color:#fff;stop-opacity:0.37"/></linearGradient><linearGradient id="_Linear4" x1="0" y1="0" x2="1" y2="0" gradientUnits="userSpaceOnUse" gradientTransform="matrix(-258.654,27.1857,28.013,266.525,611.672,88.9579)"><stop offset="0" style="stop-color:#fff;stop-opacity:0.17"/><stop offset="1" style="stop-color:#fff;stop-opacity:0.37"/></linearGradient></defs></svg>